<svg width="106" height="295" viewBox="0 0 106 295" fill="none" xmlns="http://www.w3.org/2000/svg">
<path d="M11.0319 37.5485H18.6562V42.4301H11.0319V37.5485Z" fill="#E2E2E2"/>
<path d="M5.07583 68.5678H91.2563V180.825H5.07583V68.5678Z" fill="#433D4F"/>
<path d="M8.04407 71.6073H15.6377V132.5H8.04407V71.6073Z" fill="#2A2633"/>
<path d="M27.1098 71.8119H40.1582V154.431H27.1098V71.8119Z" fill="#2A2633"/>
<path d="M36.8629 75.8235H67.2681V87.0093H36.8629V75.8235Z" fill="#A5A5A5"/>
<path d="M96.2609 29.9139H100.61V53.1451H96.2609V29.9139Z" fill="#6A6572"/>
<path d="M20.3349 25.0733H28.1128V56.1335H20.3349V25.0733Z" fill="#6A6572"/>
<path d="M90.8164 25.0733H98.5942V56.1335H90.8164V25.0733Z" fill="#5A5663"/>
<path d="M17.7868 165.995H88.1455V190.772H17.7868V165.995Z" fill="white"/>
<path d="M35.3481 57.167H47.373V64.6788H35.3481V57.167Z" fill="#D6AB8E"/>
<path d="M35.1951 36.8629H47.1074V57.7403H35.1951V36.8629Z" fill="#BFA08C"/>
<path d="M47.4139 53.4829H69.6934V64.2388H47.4139V53.4829Z" fill="#BFA08C"/>
<path d="M47.127 18.8817H81.063V58.0063H47.127V18.8817Z" fill="#D6AB8E"/>
<path d="M64.5869 11.7896H65.0372H81.166V22.7093H65.0372H64.5869H48.8982V11.7896H64.5869Z" fill="#313131"/>
<path d="M35.3278 8.39185H47.4448V37.3643H35.3278V8.39185Z" fill="#313131"/>
<path d="M58.5081 63.8806L69.6939 63.6759L69.7246 75.7418V82.0971H35.5123V63.8499H47.4145V75.5269H58.4877L58.5081 63.8806Z" fill="white"/>
<path d="M69.724 84.2666H103.813V167.449C103.813 167.449 1.41208 166.763 0.798042 167.449C0.183998 168.134 0.798042 84.2666 0.798042 84.2666H69.724Z" fill="white"/>
<path d="M49.3795 88.8514H57.4438V157.706H49.3795V88.8514Z" fill="#E2E2E2"/>
<path d="M92.4947 156.294H105.604V169.741H92.4947V156.294Z" fill="#6A6572"/>
<path d="M12.4345 161.656H92.4951V167.357H12.4345V161.656Z" fill="#6A6572"/>
<path d="M88.0229 190.547V282.53H63.1953L63.0111 282.029C62.9189 281.742 62.4072 281.865 62.4994 282.151C62.4994 282.274 62.5915 282.397 62.6426 282.53H62.223V190.547H88.0229Z" fill="white"/>
<path d="M17.7971 190.557H37.4976V282.53H17.7971V190.557Z" fill="white"/>
<path d="M78.1779 167.367H88.5347V283.236H78.1779V167.367Z" fill="#E2E2E2"/>
<path d="M28.2356 190.608H42.4404V283.011H28.2356V190.608Z" fill="#E2E2E2"/>
<path d="M65.2622 48.4476H69.7549V58.0574H65.2622V48.4476Z" fill="#313131"/>
<path d="M45.0297 75.8235H61.0356V86.6204H45.0297V75.8235Z" fill="#E2E2E2"/>
<path d="M47.4034 63.7883H59.5103V77.0618H47.4034V63.7883Z" fill="white"/>
<path d="M47.3527 11.902H56.4507V49.8395H47.3527V11.902Z" fill="#DDB99F"/>
<path d="M69.714 57.9448H80.8179V64.1261H69.714V57.9448Z" fill="#313131"/>
<path d="M62.1817 282.54H101.644V294.227H62.1817V282.54Z" fill="#6A6572"/>
<path d="M-0.000237465 155.946H12.6797V169.393H-0.000237465V155.946Z" fill="#6A6572"/>
<path d="M72.088 30.3027H78.6479V48.3043H72.088V30.3027Z" fill="#BFA08C"/>
<path d="M66.726 20.7646H82.2612V25.329H66.726V20.7646Z" fill="#313131"/>
<path d="M67.2068 25.7999H71.6279V30.221H67.2068V25.7999Z" fill="#313131"/>
<path d="M78.9547 25.7999H81.0015V30.221H78.9547V25.7999Z" fill="#313131"/>
<path d="M69.755 42.2662H83.356V48.4476H69.755V42.2662Z" fill="#313131"/>
<path d="M25.2263 13.9181H95.1348V66.5208H25.2263V13.9181Z" fill="#E2E2E2"/>
<path d="M62.2841 219.396H88.8311V223.746H62.2841V219.396Z" fill="#6A6572"/>
<path d="M17.6745 219.396H42.6045V223.746H17.6745V219.396Z" fill="#6A6572"/>
<path d="M62.2843 249.72H88.7085V288.292H62.2843V249.72Z" fill="#6A6572"/>
<path d="M78.0754 249.72H88.7085V282.898H78.0754V249.72Z" fill="#4D4954"/>
<path d="M73.3777 282.54H101.644V294.186H73.3777V282.54Z" fill="#4D4954"/>
<path d="M17.7761 249.945H42.4912V293.88H17.7761V249.945Z" fill="#6A6572"/>
<path d="M28.1841 249.945H42.4912V294.115H28.1841V249.945Z" fill="#4D4954"/>
<path d="M7.38871 282.54H42.2969V294.227H7.38871V282.54Z" fill="#4D4954"/>
<path d="M83.3359 185.645H88.5962V188.121H83.3359V185.645Z" fill="#6A6572"/>
<path d="M80.3574 167.305H83.3354V185.635H80.3574V167.305Z" fill="#6A6572"/>
<path d="M23.0669 188.121H17.8066V185.645H23.0669V188.121Z" fill="#6A6572"/>
<path d="M26.0455 185.645H23.0674L23.0674 167.183H26.0455L26.0455 185.645Z" fill="#6A6572"/>
<path d="M81.207 99.2903H92.4951V161.544H81.207V99.2903Z" fill="#E2E2E2"/>
<path d="M12.7002 99.2903H23.9883V161.861H12.7002V99.2903Z" fill="#E2E2E2"/>
<path d="M81.1964 161.656H92.5254V167.367H81.1964V161.656Z" fill="#5A5663"/>
<path d="M12.69 161.656H24.0088V167.387H12.69V161.656Z" fill="#5A5663"/>
<path d="M0.644393 100.395H10.8682V104.509H0.644393V100.395Z" fill="#FFBC00"/>
<path d="M31.6439 7.95184H89.2817V19.0864H31.6439V7.95184Z" fill="#E2E2E2"/>
<path d="M35.1743 4.13434H83.3354V12.0452H35.1743V4.13434Z" fill="#E2E2E2"/>
<path d="M40.9155 0H78.5356V8.70913H40.9155V0Z" fill="#E2E2E2"/>
<path d="M88.913 70.328H31.6538V59.1934L88.913 59.1934V70.328Z" fill="#E2E2E2"/>
<path d="M83.8673 74.1453H35.481V66.2344H83.8673V74.1453Z" fill="#E2E2E2"/>
<path d="M78.4741 78.2697H40.0762V69.5605H78.4741V78.2697Z" fill="#E2E2E2"/>
<path d="M43.402 78.2081H69.8467V82.1585H43.402V78.2081Z" fill="#A5A5A5"/>
<path d="M69.8367 73.7053H78.5254V78.2799H69.8367V73.7053Z" fill="#A5A5A5"/>
<path d="M79.354 67.1759H83.8774V74.1453H79.354V67.1759Z" fill="#A5A5A5"/>
<path d="M83.7854 63.9523H89.2095V70.4202H83.7854V63.9523Z" fill="#A5A5A5"/>
<path d="M89.1172 13.9181H95.1553V66.5311H89.1172V13.9181Z" fill="#A5A5A5"/>
<path d="M72.9683 69.9595H79.5283V74.1554H72.9683V69.9595Z" fill="#A5A5A5"/>
<path d="M84.0317 13.8976H89.5171V19.1476H84.0317V13.8976Z" fill="#A5A5A5"/>
<path d="M83.2641 10.7762H89.2817V13.9692H83.2641V10.7762Z" fill="#A5A5A5"/>
<path d="M78.955 10.8069H84.7065V14.0511H78.955V10.8069Z" fill="#A5A5A5"/>
<path d="M78.9653 7.79816H83.4888V10.807H78.9653V7.79816Z" fill="#A5A5A5"/>
<path d="M29.709 19.2092H35.2456V14.1229H38.2851V10.8787H43.2384V7.35822H75.6597V10.8787H79.8045V14.1229H84.9215V19.2092H89.9771V63.9932H84.6042V67.2271H80.265V70.4713H75.5983V74.002H42.5118V70.4713H38.3875V67.2271H35.2456V63.9932H29.709V19.2092Z" fill="#313131"/>
<path d="M35.2456 19.2092V14.1229H38.2851V10.8787H43.2384V7.35822H75.6597V10.8787H79.8045V14.1229H84.9215V19.2092H89.9771V35.1845H85.1773V31.9403H81.0428V28.4096H48.6215V31.9403H43.6682V35.1845H40.6185V40.2605H35.0921V63.9932H29.709V19.2092H35.2456Z" fill="#1E1E1E"/>
<path d="M92.3719 118.929H103.813V121.948H92.3719V118.929Z" fill="#6A6572"/>
<path d="M0.47091 118.929H12.6289V121.948H0.47091V118.929Z" fill="#6A6572"/>
<path d="M42.4916 78.1979H47.7109V82.1891H42.4916V78.1979Z" fill="#E2E2E2"/>
<path d="M75.6395 34.7239H81.5854V40.6698H75.6395V34.7239Z" fill="#1E1E1E"/>
<path d="M82.8851 41.9697H88.8311V47.9156H82.8851V41.9697Z" fill="#1E1E1E"/>
<path d="M42.8393 19.997H48.335V25.4927H42.8393V19.997Z" fill="#313131"/>
<path d="M12.629 125.796H92.4951V131.292H12.629V125.796Z" fill="#6A6572"/>
<path d="M81.1661 125.796H92.4951V131.292H81.1661V125.796Z" fill="#5A5663"/>
<path d="M12.6287 125.796H24.0703V131.292H12.6287V125.796Z" fill="#5A5663"/>
<path d="M24.7557 88.616H46.2676V94.562H24.7557V88.616Z" fill="#6A6572"/>
<path d="M72.4671 129.235H74.8721V164.133H72.4671V129.235Z" fill="#6A6572"/>
<path d="M30.241 129.235H32.646V164.133H30.241V129.235Z" fill="#6A6572"/>
<path d="M17.7765 29.9139H22.126V53.1451H17.7765V29.9139Z" fill="#6A6572"/>
<path d="M6.21233 158.453H12.7007V161.584H6.21233V158.453Z" fill="#5A5663"/>
<path d="M92.5663 158.453H99.0547V161.584H92.5663V158.453Z" fill="#5A5663"/>
<path d="M59.9917 99.2596H65.0269V104.295H59.9917V99.2596Z" fill="#6A6572"/>
<path d="M68.2305 99.2596H73.2656V104.295H68.2305V99.2596Z" fill="#6A6572"/>
<path d="M6.44737 42.4301H11.022V68.5166H6.44737V42.4301Z" fill="white"/>
</svg>
