<svg width="66" height="55" viewBox="0 0 66 55" fill="none" xmlns="http://www.w3.org/2000/svg">
<path d="M20.4438 28.316V24.5742H10.9794V28.316H20.4438Z" fill="#CE2527"/>
<path d="M13.2839 27.1503V22.4893H5.48968V27.1503H13.2839Z" fill="#CE2527"/>
<path d="M17.4918 29.1182H13.75V38.5826H17.4918V29.1182Z" fill="#CE2527"/>
<path d="M16.3266 36.2783H11.6655V44.0726H16.3266V36.2783Z" fill="#CE2527"/>
<path d="M12.7012 40.0454H8.95947V49.5099H12.7012V40.0454Z" fill="#CE2527"/>
<path d="M11.5358 47.2056H6.87476V54.9998H11.5358V47.2056Z" fill="#CE2527"/>
<path d="M54.0549 28.316V24.5742H44.5905V28.316H54.0549Z" fill="#CE2527"/>
<path d="M59.5444 27.1371V22.4761H51.7502V27.1371H59.5444Z" fill="#CE2527"/>
<path d="M47.5424 38.5825H51.2842V29.1181H47.5424V38.5825Z" fill="#CE2527"/>
<path d="M48.7076 44.0723H53.3687V36.278H48.7076V44.0723Z" fill="#CE2527"/>
<path d="M52.3327 49.4976H56.0745V40.0331H52.3327V49.4976Z" fill="#CE2527"/>
<path d="M53.4982 55H58.1592V47.2057H53.4982V55Z" fill="#CE2527"/>
<path d="M14.9541 21.4922V17.7505H5.48965V21.4922H14.9541Z" fill="#CE2527"/>
<path d="M7.79443 20.327V15.666H0.000173092V20.327H7.79443Z" fill="#CE2527"/>
<path d="M12.0023 24.4829H8.2605V33.9474H12.0023V24.4829Z" fill="#CE2527"/>
<path d="M10.8368 31.6431H6.17578V39.4373H10.8368V31.6431Z" fill="#CE2527"/>
<path d="M7.22443 35.4106H3.48267V44.8751H7.22443V35.4106Z" fill="#CE2527"/>
<path d="M6.04628 42.5708H1.38525V50.3651H6.04628V42.5708Z" fill="#CE2527"/>
<path d="M59.7388 21.6351V17.8027H50.6239V21.6351H59.7388Z" fill="#CE2527"/>
<path d="M65.0342 20.4306V15.666H57.5248V20.4306H65.0342Z" fill="#CE2527"/>
<path d="M53.4851 34.4004H57.0845V24.7029H53.4851V34.4004Z" fill="#CE2527"/>
<path d="M54.6115 40.0327H59.0913V32.0442H54.6115V40.0327Z" fill="#CE2527"/>
<path d="M58.0945 45.5874H61.6938V35.8899H58.0945V45.5874Z" fill="#CE2527"/>
<path d="M59.2207 51.2192H63.7004V43.2308H59.2207V51.2192Z" fill="#CE2527"/>
<path d="M46.0795 30.4775V44.3052H41.4702H23.5771H18.9679V30.4775H9.93066V16.6757H14.3457V12.3643H28.1863H36.861H50.6887V16.6757H55.1037V30.4775H46.0795Z" fill="#008BD0"/>
<path d="M9.93066 26.6455V30.4779H18.9679V44.3056H46.0795V30.4779H55.1037V26.6455H9.93066Z" fill="#025682"/>
<path d="M21.6738 12.7401V8.62288H17.4271V4.44091H13.2451V0H17.4271H21.868V4.11722H26.1147V8.55814V12.7401H21.6738Z" fill="#00639F"/>
<path d="M43.3733 12.7401V8.62288H47.607V4.44091H51.789V0H47.607H43.1661V4.11722H38.9324V8.55814V12.7401H43.3733Z" fill="#00639F"/>
<path d="M27.6425 14.6172H22.5671V19.6925H27.6425V14.6172Z" fill="white"/>
<path d="M42.4801 14.6172H37.4048V19.6925H42.4801V14.6172Z" fill="white"/>
<path d="M23.7322 39.8774H20.5083V47.6717H23.7322V39.8774Z" fill="#002E4D"/>
<path d="M28.9241 39.8774H25.7002V47.6717H28.9241V39.8774Z" fill="#002E4D"/>
<path d="M34.1292 39.8774H30.9053V47.6717H34.1292V39.8774Z" fill="#002E4D"/>
<path d="M39.334 39.8774H36.1101V47.6717H39.334V39.8774Z" fill="#002E4D"/>
<path d="M44.5256 39.8774H41.3018V47.6717H44.5256V39.8774Z" fill="#002E4D"/>
</svg>
