<svg width="197" height="194" viewBox="0 0 197 194" fill="none" xmlns="http://www.w3.org/2000/svg">
<path fill-rule="evenodd" clip-rule="evenodd" d="M38.65 86.3043V83.2009H79.7706V79.7095H115.072V83.2009H158.52V86.3043H173.65V92.5112H183.348V95.2267H190.331V102.985H193.046V116.951H187.615V120.83H180.632V125.485H173.65V129.365H163.176V133.632H132.141V136.347H63.4776V133.632H35.9345V129.365H25.8483V125.485H13.8225V120.83H9.16735V116.951H3.73633V102.985H9.16735V98.3302H13.8225V92.5112H29.3397V86.3043H38.65ZM22.7449 96.3909H36.3225V92.5116H46.7966V88.2444H84.8138H121.279V90.572H143.779V92.5116H157.745V96.3909H167.055V100.658H177.917V104.537H181.796V111.132H174.814V116.563H169.77V121.994H157.745V126.649H127.874V129.753H72.4V126.649H39.4259V121.994H28.9518V116.563H22.7449V113.072H14.2105V104.537H19.6415V100.658H22.7449V96.3909Z" fill="#87D2EF"/>
<path fill-rule="evenodd" clip-rule="evenodd" d="M51.1127 124.749V122.309H83.441V119.564H111.195V122.309H145.353V124.749H157.247V129.629H164.872V131.763H170.362V137.863H172.497V148.843H168.227V151.892H162.737V155.552H157.247V158.602H149.013V161.957H124.614V164.092H70.6317V161.957H48.9778V158.602H41.0482V155.552H31.5937V151.892H27.9338V148.843H23.6641V137.863H27.9338V134.203H31.5937V129.629H43.793V124.749H51.1127ZM38.6084 132.679H49.2828V129.629H57.5174V126.274H87.4059H116.074V128.104H133.764V129.629H144.743V132.679H152.063V136.034H160.602V139.083H163.652V144.268H158.162V148.538H154.198V152.808H144.743V156.468H121.259V158.907H77.6464V156.468H51.7227V152.808H43.4881V148.538H38.6084V145.793H31.8987V139.083H36.1685V136.034H38.6084V132.679Z" fill="#87D2EF"/>
<path fill-rule="evenodd" clip-rule="evenodd" d="M66.9489 152.927V151.293H88.5913V149.456H107.171V151.293H130.039V152.927H138.001V156.193H143.106V157.623H146.781V161.706H148.21V169.056H145.352V171.098H141.676V173.548H138.001V175.59H132.489V177.836H116.155V179.265H80.016V177.836H65.5197V175.59H60.2111V173.548H53.8818V171.098H51.4317V169.056H48.5732V161.706H51.4317V159.256H53.8818V156.193H62.0487V152.927H66.9489ZM58.5778 158.235H65.7239V156.193H71.2366V153.947H91.2456H110.438V155.172H122.28V156.193H129.63V158.235H134.53V160.481H140.247V162.523H142.289V165.994H138.614V168.852H135.96V171.71H129.63V174.161H113.909V175.794H84.712V174.161H67.3573V171.71H61.8446V168.852H58.5778V167.014H54.086V162.523H56.9444V160.481H58.5778V158.235Z" fill="#87D2EF"/>
<path fill-rule="evenodd" clip-rule="evenodd" d="M80.1968 172.803V171.874H92.5059V170.828H103.073V171.874H116.079V172.803H120.608V174.661H123.511V175.473H125.601V177.796H126.414V181.976H124.788V183.138H122.698V184.531H120.608V185.692H117.472V186.97H108.183V187.783H87.6287V186.97H79.3839V185.692H76.3647V184.531H72.7648V183.138H71.3713V181.976H69.7456V177.796H71.3713V176.402H72.7648V174.661H77.4098V172.803H80.1968ZM75.4358 175.822H79.5001V174.661H82.6354V173.383H94.0156H104.931V174.08H111.666V174.661H115.847V175.822H118.634V177.099H121.885V178.261H123.047V180.235H120.956V181.86H119.447V183.486H115.847V184.88H106.905V185.809H90.2996V184.88H80.4291V183.486H77.2937V181.86H75.4358V180.815H72.881V178.261H74.5068V177.099H75.4358V175.822Z" fill="#87D2EF"/>
<path fill-rule="evenodd" clip-rule="evenodd" d="M87.7641 185.089V184.576H94.553V184H100.381V184.576H107.554V185.089H110.052V186.114H111.653V186.562H112.806V187.843H113.254V190.148H112.358V190.789H111.205V191.557H110.052V192.198H108.323V192.902H103.199V193.351H91.8631V192.902H87.3158V192.198H85.6506V191.557H83.6652V190.789H82.8966V190.148H82V187.843H82.8966V187.074H83.6652V186.114H86.227V185.089H87.7641ZM85.1382 186.754H87.3798V186.114H89.109V185.409H95.3855H101.406V185.793H105.121V186.114H107.426V186.754H108.963V187.459H110.757V188.099H111.397V189.188H110.244V190.084H109.412V190.981H107.426V191.75H102.495V192.262H93.3361V191.75H87.8922V190.981H86.1629V190.084H85.1382V189.508H83.7292V188.099H84.6258V187.459H85.1382V186.754Z" fill="#87D2EF"/>
<path d="M44.5254 77.5301V83.4461H54.4891V77.5301H44.5254Z" fill="#F6E92C"/>
<path d="M158.485 41.1004H41.7229V45.7709H28.3342V47.9505H14.3228V51.9982H6.85003V58.2255H4.35911V60.4051H0V77.8415H4.35911V81.8892H10.275V85.3143H17.1251V87.4938H24.5978V90.2961H32.382V94.0325H48.2616V97.7689H64.7849V101.403H137.081V97.7689H158.485V94.0325H170.628V90.2961H176.855V87.4938H179.969V83.4461H190.244V79.7097H193.358V75.0392H196.16V60.4051H191.801V56.3573H187.442V51.9982H179.969V49.8187H170.628V45.7709H158.485V41.1004Z" fill="#402F5C"/>
<path d="M17.125 58.2253V64.1412H22.7296V67.5662H30.2023V70.9912H36.4296V73.4822H56.6684V75.9731H73.7934V78.7754H80.0207V80.9549H126.103V78.7754H138.246V75.9731H147.276V73.4822H160.976V70.9912H166.58V67.5662H173.119V64.1412H179.346V58.2253H176.232V55.7344H166.58V51.3752H25.2205V54.1775H20.2386V58.2253H17.125Z" fill="#8E4F93"/>
<path d="M20.8613 72.5484V76.9075H22.7295V80.0211H27.4V76.9075H30.0451V72.5484H27.4V69.7461H22.7295V72.5484H20.8613Z" fill="#F6E92C"/>
<path d="M44.1289 81.6711V86.0302H45.9971V89.1438H50.6676V86.0302H53.3126V81.6711H50.6676V78.8688H45.9971V81.6711H44.1289Z" fill="#F6E92C"/>
<path d="M66.6626 87.3047V91.6638H68.5308V94.7774H73.2013V91.6638H75.8463V87.3047H73.2013V84.5024H68.5308V87.3047H66.6626Z" fill="#F6E92C"/>
<path d="M96.708 90.1214V94.4805H98.5762V97.5941H103.247V94.4805H105.892V90.1214H103.247V87.3191H98.5762V90.1214H96.708Z" fill="#F6E92C"/>
<path d="M122.998 87.3047V91.6638H124.866V94.7774H129.536V91.6638H132.181V87.3047H129.536V84.5024H124.866V87.3047H122.998Z" fill="#F6E92C"/>
<path d="M148.348 83.5489V87.908H150.216V91.0217H154.887V87.908H157.532V83.5489H154.887V80.7466H150.216V83.5489H148.348Z" fill="#F6E92C"/>
<path d="M169.943 75.0986V79.4577H171.811V82.5714H176.482V79.4577H179.127V75.0986H176.482V72.2963H171.811V75.0986H169.943Z" fill="#F6E92C"/>
<path d="M7.78418 75.6621V64.1416H10.2751V73.7939H14.0115V75.6621H7.78418Z" fill="#8E4F93"/>
<path d="M187.13 71.3026V74.7276H189.933V71.3026H187.13Z" fill="#8E4F93"/>
<path d="M187.13 63.83V67.2551H189.933V63.83H187.13Z" fill="#8E4F93"/>
<path d="M50.7522 55.7343H43.2795H41.7227V35.4956H44.5249V28.6456H47.6386V25.5319H49.8181V19.3046H53.5545V15.2569H57.9136V12.766H62.5841V9.65231H66.6319V6.2273H70.0569V2.80228H78.1524V0H120.187V2.80228H125.791V6.2273H131.396V9.65231H137.934V15.2569H141.359V19.3046H146.964V26.466H149.766V32.6933H153.503V38.9206H157.55V52.6207H153.503V55.7343H148.521V58.848H137.934V62.273H129.528V64.7639H108.666V69.123H85.6251V65.698H68.5V63.2071H57.9136V58.848H50.7522V55.7343Z" fill="#312E86"/>
<path d="M51.3755 36.1186V42.6573H56.046V49.8187H64.4528V52.3096H75.9733V56.6687H124.858V52.3096H133.576V49.8187H142.917V45.7709H145.408V28.3345H142.917V23.664H138.246V19.6162H134.821V14.6344H127.971V10.2753H119.253V6.22755H112.092V3.73663H84.3802V6.22755H73.4824V10.2753H71.6142V13.3889H66.0096V17.4367H62.2733V19.6162H58.2255V23.664H54.1778V36.1186H51.3755Z" fill="#87D2EF"/>
<path d="M63.5186 26.7777V36.43H67.8777V42.6573H75.3504V36.43H79.3982V26.7777H75.3504V19.9277H71.3027V23.0413H67.8777V26.7777H63.5186Z" fill="white"/>
<path d="M124.857 16.191H112.091V19.6161H116.45V20.8615H121.744V23.0411H126.414V26.4661H129.839V38.9207H124.857V43.2798H121.744V46.0821H116.45V48.2616H112.091V52.3094H118.941V48.2616H124.857V46.0821H131.396V42.0343H135.132V38.9207H137.312V26.4661H135.132V23.0411H129.839V19.6161H124.857V16.191Z" fill="#1AB3E9"/>
</svg>
