<svg width="385" height="421" viewBox="0 0 385 421" fill="none" xmlns="http://www.w3.org/2000/svg">
<path d="M198.408 334.006C198.408 335.645 197.921 337.247 197.009 338.609C196.097 339.971 194.801 341.031 193.285 341.655C191.769 342.279 190.103 342.438 188.496 342.113C186.89 341.788 185.416 340.993 184.262 339.829C183.108 338.665 182.326 337.184 182.016 335.575C181.705 333.966 181.879 332.301 182.516 330.79C183.153 329.28 184.225 327.994 185.594 327.094C186.964 326.194 188.57 325.721 190.209 325.735C191.292 325.735 192.364 325.949 193.364 326.366C194.363 326.783 195.27 327.393 196.032 328.162C196.795 328.931 197.397 329.843 197.805 330.847C198.212 331.85 198.417 332.924 198.408 334.006Z" fill="#FFF100"/>
<path d="M150.355 331.249H126.097V338.663H117.308V347.251H109.392V363.547H150.355V331.249Z" fill="#505CA9"/>
<path d="M151.143 351.731H96V363.547H151.143V351.731Z" fill="#5D3896"/>
<path d="M234.645 331.249H258.903V338.663H267.692V347.251H275.608V363.547H234.645V331.249Z" fill="#505CA9"/>
<path d="M289 351.731H233.857V363.547H289V351.731Z" fill="#5D3896"/>
<path d="M157.445 384.816H137.382V378.692H130.113V371.535H123.571V358.033H157.445V384.816Z" fill="#F04C5A"/>
<path d="M158.233 358.033H112.543V367.486H158.233V358.033Z" fill="#5D3896"/>
<path d="M227.555 384.816H247.617V378.692H254.886V371.535H261.429V358.033H227.555V384.816Z" fill="#F04C5A"/>
<path d="M272.457 358.033H226.767V367.486H272.457V358.033Z" fill="#5D3896"/>
<path d="M220.465 366.698H162.171V375.908H166.514V382.687H171.225V390.276H173.948V404.792H180.131V414.444H185.283V420.265H197.354V414.444H204.052V404.792H208.762V390.276H211.486V382.687H216.123V375.908H220.465V366.698Z" fill="#EA4325"/>
<path d="M207.073 366.698H174.776V375.908H177.176V382.687H179.795V390.276H181.25V404.792H184.741V414.444H187.578V420.265H194.271V414.444H197.981V404.792H200.599V390.276H202.127V382.687H204.673V375.908H207.073V366.698Z" fill="#FFE500"/>
<path d="M197.62 366.698H185.016V375.908H185.969V382.687H186.995V390.276H187.581V404.792H188.9V414.444H189.999V420.265H192.637V414.444H194.103V404.792H195.129V390.276H195.715V382.687H196.741V375.908H197.62V366.698Z" fill="#FFF8AC"/>
<path d="M169.261 387.18H164.535V392.694H169.261V387.18Z" fill="#EA4325"/>
<path d="M176.351 412.388H173.2V414.751H176.351V412.388Z" fill="#EA4325"/>
<path d="M170.837 396.633H167.686V398.996H170.837V396.633Z" fill="#FFE500"/>
<path d="M212.588 392.694H218.102V387.18H212.588V392.694Z" fill="#EA4325"/>
<path d="M205.498 414.751H208.649V412.388H205.498V414.751Z" fill="#EA4325"/>
<path d="M211.012 398.996H214.163V396.633H211.012V398.996Z" fill="#FFE500"/>
<path d="M160.244 356.506L160.15 371.431L224.556 371.836L224.65 356.911L160.244 356.506Z" fill="#505CA9"/>
<path d="M141.964 339.622L141.817 363.076L242.984 363.711L243.131 340.258L141.964 339.622Z" fill="#5D3896"/>
<path d="M180 129H0V141H180V129Z" fill="#332A74"/>
<path d="M205 129H385V141H205V129Z" fill="#332A74"/>
<path d="M25 120L25 89H15L15 120H25Z" fill="#F04C5A"/>
<path d="M360 120V89H370V120H360Z" fill="#F04C5A"/>
<path d="M25 120V99H15L15 120H25Z" fill="#332A74"/>
<path d="M360 120V99H370V120H360Z" fill="#332A74"/>
<path d="M29 127V119H11V127H29Z" fill="#2E498F"/>
<path d="M356 127V119H374V127H356Z" fill="#2E498F"/>
<path d="M34 136V123H6V136H34Z" fill="#3C3485"/>
<path d="M351 136V123H379V136H351Z" fill="#3C3485"/>
<path d="M28 53H11V64H28V53Z" fill="#A0D080"/>
<path d="M357 53H374V64H357V53Z" fill="#A0D080"/>
<path d="M25 60H13V72H25V60Z" fill="#A0D080"/>
<path d="M360 60H372V72H360V60Z" fill="#A0D080"/>
<path d="M22 48H17V78H22V48Z" fill="#A0D080"/>
<path d="M363 48H368V78H363V48Z" fill="#A0D080"/>
<path d="M24 51H14V55H24V51Z" fill="#A0D080"/>
<path d="M361 51H371V55H361V51Z" fill="#A0D080"/>
<g style="mix-blend-mode:multiply">
<path d="M21.9081 52.4056H16.218V58.0957H21.9081V52.4056Z" fill="#A0D080"/>
</g>
<g style="mix-blend-mode:multiply">
<path d="M363.092 52.4056H368.782V58.0957H363.092V52.4056Z" fill="#A0D080"/>
</g>
<path d="M23 56H15V64H23V56Z" fill="#FFF89F"/>
<path d="M362 56H370V64H362V56Z" fill="#FFF89F"/>
<path d="M28 5H11V16H28V5Z" fill="#A0D080"/>
<path d="M357 5H374V16H357V5Z" fill="#A0D080"/>
<path d="M25 12H13V24H25V12Z" fill="#A0D080"/>
<path d="M360 12H372V24H360V12Z" fill="#A0D080"/>
<path d="M22 0H17V30H22V0Z" fill="#A0D080"/>
<path d="M363 0H368V30H363V0Z" fill="#A0D080"/>
<path d="M24 3H14V7H24V3Z" fill="#A0D080"/>
<path d="M361 3H371V7H361V3Z" fill="#A0D080"/>
<g style="mix-blend-mode:multiply">
<path d="M21.9081 4.4386H16.218V10.1287H21.9081V4.4386Z" fill="#A0D080"/>
</g>
<g style="mix-blend-mode:multiply">
<path d="M363.092 4.4386H368.782V10.1287H363.092V4.4386Z" fill="#A0D080"/>
</g>
<path d="M23 8H15V16H23V8Z" fill="#FFF89F"/>
<path d="M362 8H370V16H362V8Z" fill="#FFF89F"/>
</svg>
