<svg width="52" height="52" viewBox="0 0 52 52" fill="none" xmlns="http://www.w3.org/2000/svg">
<path fill-rule="evenodd" clip-rule="evenodd" d="M38.9421 4V0.208457C38.1072 0.0705576 37.2572 0 36.4 0H15.6C14.7031 0 13.8142 0.0772337 12.9421 0.228018V4H8.94214V9H2.94214V13H0.218125C0.0738566 13.8535 0 14.7229 0 15.6V36.4C0 37.2771 0.0738564 38.1465 0.218125 39H2.94214V43H8.94214V48H12.9421V51.772C13.8142 51.9228 14.7031 52 15.6 52H36.4C37.2572 52 38.1072 51.9294 38.9421 51.7915V48H42.9421V43H48.9421V39H51.7819C51.9261 38.1465 52 37.2771 52 36.4V15.6C52 14.7229 51.9261 13.8535 51.7819 13H48.9421V9H42.9421V4H38.9421ZM13.8667 26C13.8667 22.782 15.145 19.6959 17.4204 17.4204C19.6959 15.145 22.782 13.8667 26 13.8667C29.218 13.8667 32.3041 15.145 34.5796 17.4204C36.855 19.6959 38.1333 22.782 38.1333 26C38.1333 29.218 36.855 32.3041 34.5796 34.5796C32.3041 36.855 29.218 38.1333 26 38.1333C22.782 38.1333 19.6959 36.855 17.4204 34.5796C15.145 32.3041 13.8667 29.218 13.8667 26ZM38.1333 13.8667H41.6V10.4H38.1333V13.8667ZM26 17.3333C23.7015 17.3333 21.4971 18.2464 19.8717 19.8717C18.2464 21.4971 17.3333 23.7015 17.3333 26C17.3333 28.2985 18.2464 30.5029 19.8717 32.1283C21.4971 33.7536 23.7015 34.6667 26 34.6667C28.2985 34.6667 30.5029 33.7536 32.1283 32.1283C33.7536 30.5029 34.6667 28.2985 34.6667 26C34.6667 23.7015 33.7536 21.4971 32.1283 19.8717C30.5029 18.2464 28.2985 17.3333 26 17.3333Z" fill="#1A1E53"/>
</svg>
