<svg width="52" height="51" viewBox="0 0 52 51" fill="none" xmlns="http://www.w3.org/2000/svg">
<path fill-rule="evenodd" clip-rule="evenodd" d="M8 7V2H12V0H39V2H43V7H49V11H51.0579V40H49V44H43V49H39V51H12V49H8V44H2V40H0.0578613V11H2V7H8ZM17.0579 17H13.6579V13.6H17.0579V17ZM13.6579 37.4V20.4H17.0579V37.4H13.6579ZM28.9579 23.8C27.6053 23.8 26.3081 24.3373 25.3516 25.2938C24.3952 26.2502 23.8579 27.5474 23.8579 28.9V37.4H20.4579V20.4H23.8579V22.1C25.1207 21.1529 26.6223 20.5761 28.1945 20.4343C29.7667 20.2926 31.3473 20.5914 32.7592 21.2974C34.1711 22.0033 35.3585 23.0885 36.1884 24.4313C37.0183 25.7741 37.4579 27.3214 37.4579 28.9V37.4H34.0579V28.9C34.0579 27.5474 33.5205 26.2502 32.5641 25.2938C31.6077 24.3373 30.3105 23.8 28.9579 23.8Z" fill="#402F5C"/>
</svg>
